<svg width="37" height="38" viewBox="0 0 37 38" fill="none" xmlns="http://www.w3.org/2000/svg">
<path d="M33.4156 23.7854L31.0489 21.7675C31.1609 21.0828 31.2187 20.3838 31.2187 19.6847C31.2187 18.9857 31.1609 18.2866 31.0489 17.602L33.4156 15.5841C33.5941 15.4317 33.7219 15.2287 33.7819 15.0021C33.8419 14.7756 33.8314 14.5361 33.7516 14.3157L33.7191 14.222C33.0676 12.406 32.0919 10.7225 30.8393 9.25294L30.7743 9.17727C30.6223 8.99909 30.4198 8.87101 30.1934 8.8099C29.967 8.74879 29.7274 8.75753 29.506 8.83495L26.5684 9.87633C25.4845 8.9899 24.274 8.29084 22.966 7.80079L22.3987 4.73792C22.3559 4.50745 22.2438 4.29543 22.0773 4.13002C21.9108 3.96461 21.6978 3.85364 21.4665 3.81185L21.3689 3.79383C19.4864 3.45512 17.5063 3.45512 15.6238 3.79383L15.5263 3.81185C15.295 3.85364 15.082 3.96461 14.9154 4.13002C14.7489 4.29543 14.6368 4.50745 14.594 4.73792L14.0231 7.8152C12.7256 8.30536 11.5172 9.00404 10.446 9.88353L7.4867 8.83495C7.26545 8.75691 7.02562 8.74786 6.79908 8.80901C6.57254 8.87015 6.37003 8.9986 6.21844 9.17727L6.1534 9.25294C4.90229 10.7236 3.92681 12.4068 3.27362 14.222L3.2411 14.3157C3.0785 14.7661 3.21219 15.2706 3.57713 15.5841L5.97274 17.6236C5.86073 18.301 5.80653 18.9929 5.80653 19.6811C5.80653 20.373 5.86073 21.0648 5.97274 21.7386L3.57713 23.7781C3.39862 23.9305 3.27086 24.1335 3.21083 24.3601C3.15081 24.5867 3.16136 24.8261 3.2411 25.0465L3.27362 25.1402C3.92762 26.9563 4.89598 28.6319 6.1534 30.1093L6.21844 30.1849C6.3704 30.3631 6.57292 30.4912 6.79932 30.5523C7.02572 30.6134 7.26538 30.6047 7.4867 30.5273L10.446 29.4787C11.5227 30.3615 12.726 31.0606 14.0231 31.547L14.594 34.6243C14.6368 34.8548 14.7489 35.0668 14.9154 35.2322C15.082 35.3976 15.295 35.5086 15.5263 35.5504L15.6238 35.5684C17.5236 35.9089 19.4691 35.9089 21.3689 35.5684L21.4665 35.5504C21.6978 35.5086 21.9108 35.3976 22.0773 35.2322C22.2438 35.0668 22.3559 34.8548 22.3987 34.6243L22.966 31.5614C24.2735 31.0727 25.4908 30.3713 26.5684 29.4859L29.506 30.5273C29.7273 30.6053 29.9671 30.6144 30.1937 30.5532C30.4202 30.4921 30.6227 30.3636 30.7743 30.1849L30.8393 30.1093C32.0968 28.6283 33.0651 26.9563 33.7191 25.1402L33.7516 25.0465C33.9142 24.6033 33.7806 24.0988 33.4156 23.7854ZM28.4835 18.0272C28.5738 18.5713 28.6208 19.1298 28.6208 19.6883C28.6208 20.2468 28.5738 20.8054 28.4835 21.3495L28.245 22.7944L30.9441 25.097C30.5349 26.0371 30.0184 26.927 29.4049 27.7491L26.0517 26.5636L24.9172 27.4932C24.0536 28.1995 23.0925 28.7544 22.0518 29.1436L20.6752 29.6589L20.0284 33.1541C19.0079 33.2694 17.9776 33.2694 16.9571 33.1541L16.3103 29.6516L14.9445 29.1292C13.9147 28.74 12.9572 28.1851 12.1009 27.4824L10.9663 26.5491L7.59149 27.7455C6.97723 26.9203 6.46415 26.0303 6.05223 25.0934L8.78026 22.7692L8.5454 21.3279C8.45868 20.7909 8.41171 20.236 8.41171 19.6883C8.41171 19.137 8.45506 18.5857 8.5454 18.0488L8.78026 16.6074L6.05223 14.2833C6.46053 13.3428 6.97723 12.4563 7.59149 11.6312L10.9663 12.8275L12.1009 11.8942C12.9572 11.1916 13.9147 10.6366 14.9445 10.2475L16.314 9.73219L16.9607 6.22971C17.9761 6.11441 19.0131 6.11441 20.032 6.22971L20.6788 9.72499L22.0555 10.2403C23.0925 10.6294 24.0572 11.1844 24.9208 11.8906L26.0554 12.8203L29.4085 11.6348C30.0227 12.4599 30.5358 13.35 30.9477 14.2869L28.2486 16.5894L28.4835 18.0272ZM18.5 12.986C14.9879 12.986 12.1406 15.8255 12.1406 19.328C12.1406 22.8305 14.9879 25.6699 18.5 25.6699C22.0121 25.6699 24.8594 22.8305 24.8594 19.328C24.8594 15.8255 22.0121 12.986 18.5 12.986ZM21.3617 22.1819C20.9864 22.5572 20.5403 22.8549 20.0492 23.0578C19.5581 23.2606 19.0316 23.3646 18.5 23.3638C17.4196 23.3638 16.4043 22.9422 15.6383 22.1819C15.2618 21.8075 14.9634 21.3627 14.76 20.8729C14.5566 20.3831 14.4523 19.8581 14.4531 19.328C14.4531 18.2506 14.8759 17.238 15.6383 16.4741C16.4043 15.7102 17.4196 15.2922 18.5 15.2922C19.5804 15.2922 20.5957 15.7102 21.3617 16.4741C21.7381 16.8484 22.0366 17.2933 22.24 17.783C22.4434 18.2728 22.5477 18.7979 22.5469 19.328C22.5469 20.4054 22.1241 21.4179 21.3617 22.1819Z" fill="#000"/>
</svg>
