<svg width="27" height="28" viewBox="0 0 27 28" fill="none" xmlns="http://www.w3.org/2000/svg">
<g clip-path="url(#clip0_85_868)">
<path d="M9.20547 12.8545H2.68381C2.0235 12.8538 1.39039 12.5895 0.9234 12.1194C0.456413 11.6493 0.193688 11.0118 0.192871 10.3469V3.86131C0.193688 3.19638 0.456413 2.55894 0.9234 2.08884C1.39039 1.61874 2.0235 1.35438 2.68381 1.35376H9.20547C9.86566 1.35458 10.4986 1.61903 10.9654 2.08911C11.4322 2.55919 11.6948 3.19652 11.6956 3.86131V10.3469C11.6948 11.0117 11.4322 11.649 10.9654 12.1191C10.4986 12.5892 9.86566 12.8536 9.20547 12.8545ZM2.68381 3.29579C2.53486 3.29599 2.39205 3.35562 2.28665 3.4616C2.18126 3.56759 2.12185 3.71131 2.12144 3.86131V10.3469C2.12185 10.4969 2.18126 10.6406 2.28665 10.7466C2.39205 10.8526 2.53486 10.9122 2.68381 10.9124H9.20547C9.35435 10.9122 9.49708 10.8526 9.60236 10.7466C9.70763 10.6406 9.76687 10.4968 9.76707 10.3469V3.86131C9.76687 3.71139 9.70763 3.56766 9.60236 3.46165C9.49708 3.35564 9.35435 3.29599 9.20547 3.29579H2.68381Z" fill="#000"/>
<path d="M9.23709 28.1535H2.71543C2.05504 28.1527 1.42193 27.8882 0.954969 27.4179C0.488004 26.9477 0.225304 26.3102 0.224487 25.6452V19.1604C0.225304 18.4955 0.488029 17.858 0.955017 17.3879C1.422 16.9178 2.05511 16.6534 2.71543 16.6528H9.23709C9.897 16.6541 10.5295 16.9187 10.996 17.3887C11.4625 17.8588 11.7249 18.4959 11.7257 19.1604V25.6452C11.7251 26.3099 11.4628 26.9472 10.9963 27.4174C10.5298 27.8876 9.89714 28.1523 9.23709 28.1535ZM2.71543 18.5949C2.56648 18.5951 2.42367 18.6547 2.31827 18.7607C2.21287 18.8667 2.15347 19.0104 2.15306 19.1604V25.6452C2.15326 25.7953 2.21258 25.9393 2.318 26.0454C2.42342 26.1516 2.56634 26.2113 2.71543 26.2115H9.23709C9.38604 26.2111 9.52876 26.1513 9.63402 26.0451C9.73927 25.939 9.79848 25.7952 9.79869 25.6452V19.1604C9.79848 19.0105 9.73925 18.8667 9.63397 18.7607C9.5287 18.6547 9.38597 18.5951 9.23709 18.5949H2.71543Z" fill="#000"/>
<path d="M24.317 28.1535H17.7953C17.1349 28.1527 16.5018 27.8882 16.0349 27.4179C15.5679 26.9477 15.3052 26.3102 15.3044 25.6452V19.1604C15.3052 18.4955 15.5679 17.858 16.0349 17.3879C16.5019 16.9178 17.135 16.6534 17.7953 16.6528H24.317C24.9772 16.6537 25.6101 16.9181 26.0769 17.3882C26.5437 17.8583 26.8063 18.4956 26.8072 19.1604V25.6452C26.8065 26.3101 26.544 26.9477 26.0772 27.4179C25.6103 27.8881 24.9773 28.1527 24.317 28.1535ZM17.7953 18.5987C17.6464 18.599 17.5036 18.6586 17.3982 18.7646C17.2928 18.8706 17.2334 19.0143 17.233 19.1643V25.6491C17.2332 25.7992 17.2925 25.9431 17.3979 26.0493C17.5033 26.1554 17.6462 26.2152 17.7953 26.2154H24.317C24.4659 26.215 24.6087 26.1552 24.7139 26.049C24.8192 25.9429 24.8784 25.7991 24.8786 25.6491V19.1604C24.8784 19.0105 24.8191 18.8667 24.7139 18.7607C24.6086 18.6547 24.4659 18.5951 24.317 18.5949L17.7953 18.5987Z" fill="#000"/>
<path d="M21.06 12.8543C19.9328 12.8459 18.8333 12.5016 17.9001 11.8648C16.967 11.2281 16.2419 10.3274 15.8163 9.27629C15.3908 8.22519 15.2837 7.07075 15.5088 5.9585C15.7338 4.84624 16.2808 3.82598 17.0808 3.02632C17.8809 2.22666 18.8981 1.6834 20.0043 1.46504C21.1104 1.24668 22.2561 1.36298 23.2967 1.79929C24.3373 2.2356 25.2264 2.97239 25.8518 3.91676C26.4772 4.86113 26.811 5.97081 26.811 7.10592C26.8035 8.63555 26.1938 10.0997 25.1157 11.1773C24.0376 12.255 22.5791 12.858 21.06 12.8543ZM21.06 3.29954C20.3143 3.30797 19.5876 3.53835 18.9716 3.96169C18.3556 4.38504 17.8777 4.98241 17.5981 5.67864C17.3185 6.37486 17.2497 7.13882 17.4003 7.87435C17.5509 8.60987 17.9142 9.2841 18.4445 9.81217C18.9748 10.3402 19.6484 10.6985 20.3805 10.842C21.1125 10.9854 21.8704 10.9076 22.5586 10.6183C23.2468 10.329 23.8347 9.84111 24.2482 9.21612C24.6617 8.59112 24.8824 7.85692 24.8824 7.10592C24.8763 6.09054 24.4704 5.11908 23.7538 4.40474C23.0372 3.69039 22.0684 3.29152 21.06 3.29565V3.29954Z" fill="#000"/>
</g>
<defs>
<clipPath id="clip0_85_868">
<rect width="27" height="28" fill="white"/>
</clipPath>
</defs>
</svg>
