<svg width="39" height="34" viewBox="0 0 39 34" fill="none" xmlns="http://www.w3.org/2000/svg">
<path d="M28.9186 17.8772C28.4321 17.8772 28.0379 18.2712 28.0379 18.7572V27.6876H10.162V18.7572C10.162 18.2712 9.76779 17.8772 9.28127 17.8772C8.79474 17.8772 8.40051 18.2712 8.40051 18.7572V28.5677C8.40051 29.0537 8.79474 29.4477 9.28127 29.4477H28.9186C29.4052 29.4477 29.7994 29.0537 29.7994 28.5677V18.7572C29.7994 18.2712 29.405 17.8772 28.9186 17.8772Z" fill="#000"/>
<path d="M33.6074 18.135L19.7212 4.26187C19.3774 3.91819 18.8197 3.9183 18.4757 4.26187L4.59132 18.135C4.24735 18.4787 4.24735 19.0359 4.59132 19.3795C4.76336 19.5512 4.98883 19.6373 5.21418 19.6373C5.43966 19.6373 5.66501 19.5514 5.83705 19.3795L19.0987 6.12858L32.362 19.3795C32.7059 19.7231 33.2636 19.723 33.6077 19.3793C33.9514 19.0358 33.9514 18.4785 33.6074 18.135Z" fill="#000"/>
</svg>
