<svg width="29" height="29" viewBox="0 0 28 29" fill="none" xmlns="http://www.w3.org/2000/svg">
<g clip-path="url(#clip0_85_877)">
<path d="M27.6471 27.3787L19.6135 19.2936C21.1973 17.3834 22.1498 14.9423 22.1498 12.2761C22.1498 6.19352 17.1862 1.2478 11.0806 1.2478C4.9751 1.2478 0 6.19929 0 12.2819C0 18.3645 4.96362 23.3102 11.0692 23.3102C13.6629 23.3102 16.05 22.4157 17.9436 20.921L26.0059 29.0292C26.4765 29.5024 27.1766 29.5024 27.6471 29.0292C28.1176 28.556 28.1176 27.8519 27.6471 27.3787ZM2.3527 12.2819C2.3527 7.50353 6.26622 3.61967 11.0692 3.61967C15.8721 3.61967 19.7856 7.50353 19.7856 12.2819C19.7856 17.0602 15.8721 20.9441 11.0692 20.9441C6.26622 20.9441 2.3527 17.0545 2.3527 12.2819Z" fill="#000"/>
</g>
<defs>
<clipPath id="clip0_85_877">
<rect width="28" height="29" fill="white"/>
</clipPath>
</defs>
</svg>
