<svg width="201" height="15" viewBox="0 0 201 15" fill="none" xmlns="http://www.w3.org/2000/svg">
<g clip-path="url(#clip0_88_45)">
<path d="M200.154 3.79139C200.084 3.71962 200.009 3.67118 199.931 3.648C199.896 3.64297 199.861 3.64297 199.826 3.648H199.664C199.265 3.60498 198.909 3.60498 198.538 3.5978C197.074 3.5978 195.624 3.5978 194.174 3.5978H191.958C191.976 3.47589 191.988 3.35112 191.994 3.22498C191.865 2.17825 191.66 2.32884 191.606 2.18546C191.501 2.10099 191.393 2.03851 191.282 1.99905L191.03 1.91301C190.872 1.87 190.717 1.84131 190.562 1.81263C189.343 1.6334 188.159 1.6047 186.965 1.56885L183.399 1.51153H177.204C190.278 0.608188 179.305 0.314206 138.838 0.443255L111.442 0.393108L33.7714 0.285549H14.1604C10.8505 0.285549 7.53341 0.235364 4.20554 0.285549C3.37448 0.285549 2.5434 0.285567 1.68715 0.393108C1.47849 0.393108 1.26622 0.39309 1.04676 0.464784C0.935233 0.464784 0.827305 0.464767 0.686992 0.536461C0.597582 0.555117 0.509493 0.593616 0.424363 0.651196C0.399123 0.66664 0.374948 0.688293 0.352407 0.715696C0.306758 0.759723 0.263377 0.812573 0.222891 0.873448C0.149925 0.997233 0.0921937 1.15275 0.0541452 1.32801C0.0160965 1.50327 -0.00125128 1.69358 0.00343455 1.88431C0.089779 2.68011 0.363202 2.84503 0.309236 2.80201C0.346716 2.84456 0.386561 2.87826 0.427962 2.90239H0.485524H0.557477C0.787615 2.96747 1.01946 3.00574 1.25183 3.01709L1.88143 3.06728C3.55074 3.14614 5.20209 3.14615 6.85343 3.16048H9.14515C9.12759 3.40881 9.15297 3.66166 9.21711 3.87742L9.27469 4.07097H8.48679C8.00111 4.07097 7.5154 4.07097 7.01532 4.16417L6.62678 4.22871C6.46974 4.26502 6.31451 4.32738 6.16269 4.41513C6.08766 4.46566 6.01633 4.53555 5.95041 4.62302C5.84054 4.76211 5.75518 4.96599 5.70617 5.20628C5.65717 5.44657 5.64698 5.71132 5.67698 5.9637C5.74894 6.4369 5.8209 6.58742 6.08354 6.8742C6.15962 6.92162 6.23801 6.95281 6.31739 6.96742C6.47928 6.96742 6.5872 6.96742 6.70952 6.96742L17.0313 7.16098H16.873L16.6356 7.22549L16.4808 7.30439C16.358 7.36389 16.2458 7.4905 16.1571 7.67001C16.102 7.79893 16.0609 7.94899 16.0362 8.11095C16.0115 8.27291 16.0038 8.4433 16.0136 8.61144C16.0234 8.77958 16.0504 8.94188 16.0931 9.08825C16.1357 9.23467 16.193 9.36203 16.2614 9.46236C16.3192 9.53883 16.3807 9.60364 16.4449 9.65597L16.6931 9.84236C16.9513 9.98133 17.2149 10.0772 17.481 10.1291H17.258C17.0673 10.1649 16.8802 10.2008 16.6751 10.2653L16.5096 10.3299C16.4046 10.3671 16.3051 10.4503 16.2182 10.5736C16.1139 10.4517 15.8765 11.8283 16.0995 11.9573C16.1558 12.1099 16.2299 12.2329 16.3154 12.3157C16.3871 12.3899 16.4632 12.4453 16.542 12.4807C16.9294 12.6427 17.3229 12.7385 17.7185 12.7674C19.2079 12.9252 20.6686 12.918 22.14 12.9252L26.5364 12.8607L35.3221 12.703C38.2469 12.703 41.1827 12.703 44.1112 12.703L54.7674 12.7818H54.2711C48.6261 12.9467 44.1722 13.0041 41.0746 13.4199L40.7833 13.4701L40.6286 13.5131H40.5961C40.5648 13.5357 40.5374 13.5754 40.5171 13.6278C40.4996 13.7049 40.495 13.7912 40.5041 13.8738C40.5134 13.9564 40.5354 14.031 40.5673 14.0866L40.6105 14.1225H40.6286C41.0503 14.2884 41.4794 14.3677 41.9093 14.3591C43.7981 14.3017 46.0864 14.3591 48.6586 14.3591L57.1276 14.4164L95.4393 14.5311L148.879 14.6674L162.245 14.7032C166.702 14.7032 171.163 14.6387 175.621 14.6172L182.313 14.5598H185.659C185.936 14.5598 186.213 14.5598 186.497 14.5598H186.925H187.155C187.312 14.5176 187.464 14.4256 187.605 14.2874C188.202 13.3553 188.134 13.0184 187.9 12.8535C189.886 12.9037 191.897 12.9825 193.962 12.9252C194.48 12.9252 195.002 12.875 195.534 12.8105C195.801 12.7746 196.067 12.7388 196.344 12.6743L196.765 12.5524C196.919 12.4879 197.074 12.4234 197.229 12.3373C197.325 12.2766 197.419 12.2024 197.509 12.115C197.618 12.0215 197.713 11.8761 197.787 11.6917C197.861 11.5073 197.91 11.2895 197.932 11.0577C197.953 10.8259 197.945 10.5872 197.909 10.3627C197.873 10.1383 197.81 9.93489 197.725 9.77062C197.671 9.6655 197.608 9.58053 197.538 9.51971L197.653 9.46236L197.83 9.36197L197.92 9.31178L198.06 9.18274C198.132 9.04654 198.182 9.1828 198.42 8.5017C198.461 8.32847 198.485 8.14041 198.489 7.9487C198.493 7.75706 198.478 7.56564 198.444 7.38578C198.411 7.20597 198.36 7.04141 198.294 6.90181C198.228 6.7622 198.148 6.65044 198.06 6.5731L197.966 6.50858C198.384 6.45122 198.805 6.37238 199.24 6.24329C199.434 6.17161 199.621 6.14296 199.823 6.03542L199.996 5.94221C200.031 5.94221 200.071 5.892 200.139 5.82748C200.136 6.36516 200.783 4.37928 200.154 3.79139ZM199.632 3.7412C199.621 3.69818 199.618 3.68385 199.632 3.7412V3.7412Z" fill="#FFD233"/>
</g>
<defs>
<clipPath id="clip0_88_45">
<rect width="200.426" height="14.4399" fill="white" transform="translate(0.00268555 0.263245)"/>
</clipPath>
</defs>
</svg>
